<svg version="1.1" id="Layer_1" xmlns="http://www.w3.org/2000/svg" xmlns:xlink="http://www.w3.org/1999/xlink" viewBox="0 0 512.001 512.001" xml:space="preserve" fill="#000000"><g id="SVGRepo_bgCarrier" stroke-width="0"></g><g id="SVGRepo_tracerCarrier" stroke-linecap="round" stroke-linejoin="round"></g><g id="SVGRepo_iconCarrier"> <rect x="140.977" y="149.485" transform="matrix(-0.7071 -0.7071 0.7071 -0.7071 16.1497 717.3862)" style="fill:#3B67AA;" width="31.347" height="411.728"></rect> <path style="fill:#54E68B;" d="M491.618,20.385c0,0-171.829-81.486-334.706,81.391S75.52,436.483,75.52,436.483 s171.829,81.486,334.706-81.391S491.618,20.385,491.618,20.385z"></path> <g> <path style="fill:#21C25E;" d="M156.912,101.776C-5.964,264.652,75.518,436.478,75.52,436.483l99.164-99.164V84.99 C168.755,90.277,162.827,95.861,156.912,101.776z"></path> <path style="fill:#21C25E;" d="M315.647,8.395v187.96l175.97-175.97C491.616,20.384,415.027-15.929,315.647,8.395z"></path> <path style="fill:#21C25E;" d="M315.647,196.356L174.684,337.319h252.327c43.094-48.343,65.809-96.892,76.595-140.963 L315.647,196.356L315.647,196.356z"></path> </g> </g></svg>